<svg width="198" height="65" viewBox="0 0 198 65" fill="none" xmlns="http://www.w3.org/2000/svg">
<path d="M54.7537 9.73919C54.4624 9.46122 54.178 9.31153 53.7786 9.22582C53.0676 9.07344 30.0547 9.06684 29.6753 9.21902C29.4747 9.29942 29.4318 9.38762 29.459 9.66354C29.4917 9.99447 29.5475 10.0314 30.8985 10.6161C32.6208 11.3615 32.9631 11.5362 34.4665 12.4372C38.1039 14.617 41.5589 18.0167 43.8761 21.696C44.6467 22.9196 45.9485 25.5758 46.4715 26.9917C46.9826 28.3758 47.5308 30.5006 47.838 32.2875C48.046 33.4974 48.0802 34.0977 48.0846 36.6106C48.0899 39.6622 48.0212 40.4331 47.5449 42.6629C45.6115 51.7132 39.4264 59.1789 30.7904 62.8861C29.5583 63.4151 29.4912 63.46 29.4591 63.7797C29.431 64.0588 29.4737 64.1347 29.7094 64.2243C30.1109 64.3768 78.0067 64.371 78.9484 64.2183C79.8632 64.0699 80.6634 63.6656 81.2605 63.0502C81.6087 62.6914 83.198 60.0331 86.8587 53.6867C89.6704 48.8125 92.0473 44.7652 92.1409 44.6928C92.3968 44.4947 92.7714 44.5281 93.0138 44.7704C93.2265 44.983 93.23 45.1306 93.23 53.6389C93.23 59.5171 93.2678 62.441 93.3477 62.7583C93.4954 63.3446 93.9821 63.9428 94.565 64.2544L95.014 64.4944L117.017 64.5257C131.9 64.5468 139.298 64.5203 139.881 64.4437C141.975 64.1687 143.562 62.7622 144.097 60.7072C144.389 59.5895 144.24 58.3879 143.676 57.3073C143.537 57.0398 137.454 46.4861 130.158 33.8546C121.172 18.2956 116.754 10.7442 116.459 10.4415C114.956 8.9003 112.357 8.91727 110.835 10.4781C110.454 10.8695 108.459 14.2383 102.691 24.2358C98.4897 31.5175 94.9335 37.6576 94.7883 37.8805C94.5848 38.193 94.4535 38.2858 94.2148 38.2858C94.1136 38.2858 94.0293 38.3053 93.9589 38.2823C93.5844 38.1598 93.6039 36.833 93.5544 24.9487L93.5003 11.969L93.2025 11.3628C92.8086 10.561 91.9378 9.7487 91.119 9.41907L90.473 9.15903L82.3704 9.12747C76.8891 9.10608 74.0927 9.13342 73.7265 9.21199C73.115 9.34309 72.5421 9.73173 72.3229 10.1644C72.2416 10.3248 70.4334 15.1492 68.3046 20.8854C66.1758 26.6216 64.3363 31.4242 64.2169 31.558C63.9557 31.8505 63.4894 31.8753 63.2486 31.6093C63.1532 31.5038 61.2952 26.6283 59.12 20.7746C55.4009 10.7669 55.1404 10.1083 54.7537 9.73919Z" fill="white"/>
<path d="M23.2729 21.592C21.7935 20.8543 20.4982 20.4085 18.8065 20.0547C17.665 19.816 17.4496 19.8092 10.156 19.7829C4.04063 19.7608 2.5905 19.7833 2.20696 19.9054C1.21246 20.2225 0.477909 20.9713 0.175243 21.9766C-0.062705 22.7671 -0.0563087 51.103 0.182073 51.9055C0.421214 52.711 0.986111 53.3853 1.72565 53.7485L2.35082 54.0554L9.28872 54.0893C14.0448 54.1123 16.5988 54.0833 17.4101 53.9967C24.0346 53.2897 29.6271 48.8444 31.8209 42.5422C32.533 40.4966 32.7049 39.3853 32.698 36.8745C32.6929 35.0073 32.6543 34.4824 32.4562 33.5885C31.2672 28.2201 27.9959 23.9467 23.2729 21.592Z" fill="white"/>
<path d="M135.424 0.799523C138.098 0.799523 140.01 2.53623 140.01 5.0226C140.01 7.54645 138.098 9.29565 135.424 9.29565H132.013V0.799523H135.424ZM135.424 7.39652C136.811 7.39652 137.873 6.37199 137.873 5.0226C137.873 3.7107 136.811 2.69866 135.424 2.69866H134.125V7.39652H135.424ZM142.061 2.28635C141.398 2.28635 140.874 1.79907 140.874 1.14936C140.874 0.487165 141.398 -0.000112846 142.061 -0.000112846C142.71 -0.000112846 143.247 0.487165 143.247 1.14936C143.247 1.79907 142.71 2.28635 142.061 2.28635ZM141.061 3.23591H143.085V9.29565H141.061V3.23591ZM148.655 3.23591H150.679V9.33314C150.679 11.2323 149.329 12.3318 147.43 12.3318C145.594 12.3318 144.257 11.2822 144.157 9.70797H146.156C146.256 10.2702 146.681 10.6201 147.43 10.6201C148.118 10.6201 148.655 10.1952 148.655 9.37062V8.64595C148.205 8.92082 147.668 9.08325 146.993 9.08325C145.356 9.08325 143.982 7.79634 143.982 6.15958C143.982 4.31042 145.356 3.07349 146.993 3.07349C147.668 3.07349 148.205 3.24841 148.655 3.53578V3.23591ZM147.405 7.47148C147.843 7.47148 148.267 7.33405 148.655 6.89675V5.29747C148.267 4.86017 147.843 4.73523 147.405 4.73523C146.581 4.73523 145.968 5.28498 145.968 6.15958C145.968 6.82178 146.581 7.47148 147.405 7.47148ZM152.866 2.28635C152.203 2.28635 151.679 1.79907 151.679 1.14936C151.679 0.487165 152.203 -0.000112846 152.866 -0.000112846C153.515 -0.000112846 154.053 0.487165 154.053 1.14936C154.053 1.79907 153.515 2.28635 152.866 2.28635ZM151.866 3.23591H153.89V9.29565H151.866V3.23591ZM159.697 7.34654L159.922 9.15822C159.297 9.4206 158.648 9.45808 158.298 9.45808C156.649 9.45808 155.649 8.38357 155.649 6.74681V4.97262H154.462V3.23591H155.649V1.17435H157.673V3.23591H159.735V4.97262H157.673V6.68434C157.673 7.30906 158.036 7.59643 158.623 7.59643C159.01 7.59643 159.335 7.48398 159.697 7.34654ZM164.747 3.23591H166.771V9.29565H164.747V8.9708C164.297 9.27067 163.76 9.45808 163.085 9.45808C161.448 9.45808 160.074 8.05872 160.074 6.25954C160.074 4.44786 161.448 3.07349 163.085 3.07349C163.76 3.07349 164.297 3.24841 164.747 3.54827V3.23591ZM163.497 7.73387C163.934 7.73387 164.359 7.62142 164.747 7.19661V5.32246C164.359 4.89766 163.934 4.78521 163.497 4.78521C162.673 4.78521 162.06 5.42242 162.06 6.25954C162.06 7.09666 162.673 7.73387 163.497 7.73387ZM167.77 0.424693H169.807V9.29565H167.77V0.424693ZM173.649 3.07349C175.786 3.07349 177.073 4.59779 176.773 6.74681H172.388C172.525 7.37153 172.937 7.85881 173.762 7.85881C174.212 7.85881 174.474 7.75885 174.661 7.53396H176.711C176.348 8.72092 175.224 9.45808 173.799 9.45808C171.813 9.45808 170.488 8.10869 170.488 6.25954C170.488 4.42287 171.775 3.07349 173.649 3.07349ZM173.699 4.5728C172.987 4.5728 172.575 4.97262 172.413 5.58484H174.936C174.824 4.88516 174.387 4.5728 173.699 4.5728ZM139.81 21.2957H137.348L135.737 18.8343H135.724H134.125V21.2957H132.013V12.7995H135.724C137.836 12.7995 139.248 13.949 139.248 15.7857C139.248 16.8977 138.71 17.7972 137.811 18.322L139.81 21.2957ZM134.125 14.6612V16.9351H135.687C136.499 16.9351 137.136 16.4853 137.136 15.7857C137.136 15.0985 136.499 14.6612 135.687 14.6612H134.125ZM142.662 15.0735C144.798 15.0735 146.085 16.5978 145.785 18.7468H141.4C141.537 19.3715 141.949 19.8588 142.774 19.8588C143.224 19.8588 143.486 19.7589 143.674 19.534H145.723C145.36 20.7209 144.236 21.4581 142.812 21.4581C140.825 21.4581 139.501 20.1087 139.501 18.2595C139.501 16.4229 140.787 15.0735 142.662 15.0735ZM142.712 16.5728C141.999 16.5728 141.587 16.9726 141.425 17.5848H143.949C143.836 16.8852 143.399 16.5728 142.712 16.5728ZM147.913 19.2216C148.001 19.7464 148.475 19.9713 149.113 19.9713C149.65 19.9713 149.987 19.8213 149.987 19.5589C149.987 19.3465 149.75 19.1966 149.35 19.1341L148.126 18.9217C147.088 18.7468 146.351 18.1596 146.351 17.0976C146.351 15.8231 147.438 15.0735 149.05 15.0735C150.487 15.0735 151.786 15.5608 151.874 17.16H150.087C150.05 16.7102 149.612 16.5103 149.05 16.5103C148.525 16.5103 148.288 16.6977 148.288 16.9226C148.288 17.135 148.438 17.3225 148.925 17.4099L150.05 17.5973C151.174 17.8097 151.936 18.3595 151.936 19.434C151.936 20.8334 150.687 21.4581 149.1 21.4581C147.538 21.4581 146.251 20.8209 146.114 19.2091L147.913 19.2216ZM155.643 15.0735C157.592 15.0735 158.966 16.4104 158.966 18.272C158.966 20.1462 157.592 21.4581 155.643 21.4581C153.694 21.4581 152.307 20.1462 152.307 18.272C152.307 16.4104 153.694 15.0735 155.643 15.0735ZM155.643 19.7713C156.48 19.7713 157.067 19.1591 157.067 18.272C157.067 17.3974 156.48 16.7727 155.643 16.7727C154.793 16.7727 154.206 17.3974 154.206 18.272C154.206 19.1591 154.793 19.7713 155.643 19.7713ZM138.398 32.2957L137.823 30.8338H134.225L133.663 32.2957H131.414L135.024 23.7995H137.049L140.647 32.2957H138.398ZM134.912 29.0721H137.136L136.024 26.2109L134.912 29.0721ZM143.69 30.7464C144.303 30.7464 144.777 30.359 144.877 29.8093H146.789C146.639 31.3711 145.352 32.4581 143.678 32.4581C141.779 32.4581 140.367 31.1087 140.367 29.2595C140.367 27.4229 141.779 26.0735 143.678 26.0735C145.352 26.0735 146.639 27.1605 146.789 28.7223H144.877C144.777 28.1725 144.303 27.7852 143.69 27.7852C142.816 27.7852 142.303 28.4349 142.303 29.2595C142.303 30.0842 142.816 30.7464 143.69 30.7464ZM150.563 30.7464C151.175 30.7464 151.65 30.359 151.75 29.8093H153.662C153.512 31.3711 152.225 32.4581 150.551 32.4581C148.652 32.4581 147.24 31.1087 147.24 29.2595C147.24 27.4229 148.652 26.0735 150.551 26.0735C152.225 26.0735 153.512 27.1605 153.662 28.7223H151.75C151.65 28.1725 151.175 27.7852 150.563 27.7852C149.689 27.7852 149.176 28.4349 149.176 29.2595C149.176 30.0842 149.689 30.7464 150.563 30.7464ZM157.274 26.0735C159.41 26.0735 160.697 27.5978 160.397 29.7468H156.012C156.149 30.3715 156.561 30.8588 157.386 30.8588C157.836 30.8588 158.098 30.7589 158.286 30.534H160.335C159.972 31.7209 158.848 32.4581 157.424 32.4581C155.437 32.4581 154.113 31.1087 154.113 29.2595C154.113 27.4229 155.399 26.0735 157.274 26.0735ZM157.324 27.5728C156.611 27.5728 156.199 27.9726 156.037 28.5848H158.561C158.448 27.8852 158.011 27.5728 157.324 27.5728ZM162.525 30.2216C162.613 30.7464 163.087 30.9713 163.725 30.9713C164.262 30.9713 164.599 30.8213 164.599 30.5589C164.599 30.3465 164.362 30.1966 163.962 30.1341L162.738 29.9217C161.7 29.7468 160.963 29.1596 160.963 28.0976C160.963 26.8231 162.05 26.0735 163.662 26.0735C165.099 26.0735 166.398 26.5608 166.486 28.16H164.699C164.662 27.7102 164.224 27.5103 163.662 27.5103C163.137 27.5103 162.9 27.6977 162.9 27.9226C162.9 28.135 163.05 28.3225 163.537 28.4099L164.662 28.5973C165.786 28.8097 166.548 29.3595 166.548 30.434C166.548 31.8334 165.299 32.4581 163.712 32.4581C162.15 32.4581 160.863 31.8209 160.726 30.2091L162.525 30.2216ZM168.666 30.2216C168.753 30.7464 169.228 30.9713 169.865 30.9713C170.403 30.9713 170.74 30.8213 170.74 30.5589C170.74 30.3465 170.503 30.1966 170.103 30.1341L168.878 29.9217C167.841 29.7468 167.104 29.1596 167.104 28.0976C167.104 26.8231 168.191 26.0735 169.803 26.0735C171.24 26.0735 172.539 26.5608 172.627 28.16H170.84C170.802 27.7102 170.365 27.5103 169.803 27.5103C169.278 27.5103 169.041 27.6977 169.041 27.9226C169.041 28.135 169.191 28.3225 169.678 28.4099L170.802 28.5973C171.927 28.8097 172.689 29.3595 172.689 30.434C172.689 31.8334 171.44 32.4581 169.853 32.4581C168.291 32.4581 167.004 31.8209 166.867 30.2091L168.666 30.2216ZM174.607 25.2863C173.945 25.2863 173.42 24.7991 173.42 24.1494C173.42 23.4872 173.945 22.9999 174.607 22.9999C175.256 22.9999 175.794 23.4872 175.794 24.1494C175.794 24.7991 175.256 25.2863 174.607 25.2863ZM173.607 26.2359H175.631V32.2957H173.607V26.2359ZM180.489 26.0985C182.126 26.0985 183.5 27.4729 183.5 29.272C183.5 31.0837 182.126 32.4581 180.489 32.4581C179.827 32.4581 179.289 32.2832 178.84 31.9958V32.2957H176.803V23.4247H178.84V26.5608C179.289 26.2734 179.827 26.0985 180.489 26.0985ZM180.089 30.7589C180.914 30.7589 181.513 30.1216 181.513 29.272C181.513 28.4474 180.914 27.8102 180.089 27.8102C179.652 27.8102 179.214 27.9226 178.84 28.335V30.2341C179.214 30.6464 179.652 30.7589 180.089 30.7589ZM185.375 25.2863C184.713 25.2863 184.188 24.7991 184.188 24.1494C184.188 23.4872 184.713 22.9999 185.375 22.9999C186.025 22.9999 186.562 23.4872 186.562 24.1494C186.562 24.7991 186.025 25.2863 185.375 25.2863ZM184.376 26.2359H186.4V32.2957H184.376V26.2359ZM187.572 23.4247H189.608V32.2957H187.572V23.4247ZM193.45 26.0735C195.587 26.0735 196.874 27.5978 196.574 29.7468H192.189C192.326 30.3715 192.738 30.8588 193.563 30.8588C194.013 30.8588 194.275 30.7589 194.463 30.534H196.512C196.149 31.7209 195.025 32.4581 193.6 32.4581C191.614 32.4581 190.289 31.1087 190.289 29.2595C190.289 27.4229 191.576 26.0735 193.45 26.0735ZM193.5 27.5728C192.788 27.5728 192.376 27.9726 192.214 28.5848H194.737C194.625 27.8852 194.188 27.5728 193.5 27.5728Z" fill="white"/>
</svg>
