<svg width="200" height="67" viewBox="0 0 200 67" fill="none" xmlns="http://www.w3.org/2000/svg">
<path d="M56.4471 10.3664C56.1468 10.0798 55.8535 9.92549 55.4418 9.83713C54.7088 9.68003 30.9841 9.67323 30.593 9.83011C30.3862 9.91301 30.342 10.0039 30.3701 10.2884C30.4037 10.6295 30.4613 10.6677 31.8541 11.2704C33.6296 12.0389 33.9825 12.2189 35.5325 13.1478C39.2823 15.3951 42.8442 18.8999 45.2331 22.6929C46.0275 23.9544 47.3695 26.6928 47.9087 28.1525C48.4356 29.5793 49.0008 31.7698 49.3175 33.6121C49.5319 34.8594 49.5672 35.4782 49.5717 38.0688C49.5772 41.2149 49.5063 42.0096 49.0153 44.3083C47.0221 53.6386 40.6458 61.3351 31.7427 65.157C30.4724 65.7023 30.4033 65.7487 30.3702 66.0783C30.3412 66.3659 30.3852 66.4443 30.6282 66.5366C31.0421 66.6938 80.4192 66.6878 81.3901 66.5304C82.3332 66.3774 83.1581 65.9606 83.7736 65.3262C84.1326 64.9563 85.7711 62.2158 89.545 55.6731C92.4437 50.6481 94.8941 46.4757 94.9906 46.401C95.2543 46.1968 95.6406 46.2312 95.8905 46.481C96.1097 46.7002 96.1134 46.8524 96.1134 55.6238C96.1134 61.6838 96.1523 64.6981 96.2347 65.0252C96.3869 65.6297 96.8888 66.2464 97.4897 66.5676L97.9526 66.8151L120.636 66.8473C135.98 66.8691 143.606 66.8417 144.207 66.7628C146.366 66.4793 148.002 65.0292 148.554 62.9107C148.854 61.7584 148.701 60.5196 148.12 59.4057C147.976 59.1299 141.705 48.2498 134.184 35.2276C124.92 19.1875 120.365 11.4025 120.06 11.0904C118.511 9.50153 115.832 9.51903 114.263 11.1281C113.87 11.5316 111.814 15.0047 105.867 25.3113C101.536 32.8182 97.8695 39.1483 97.7198 39.378C97.5101 39.7002 97.3747 39.7958 97.1286 39.7958C97.0242 39.7958 96.9374 39.8159 96.8648 39.7922C96.4787 39.666 96.4989 38.2981 96.4478 26.0463L96.3921 12.6652L96.085 12.0402C95.6789 11.2136 94.7812 10.3762 93.9371 10.0363L93.2711 9.76827L84.9179 9.73574C79.2671 9.71368 76.3842 9.74187 76.0067 9.82287C75.3762 9.95802 74.7857 10.3587 74.5596 10.8047C74.4758 10.97 72.6117 15.9437 70.4171 21.8573C68.2224 27.7709 66.3261 32.722 66.2029 32.86C65.9337 33.1616 65.453 33.1871 65.2047 32.9129C65.1063 32.8042 63.1909 27.7778 60.9484 21.7431C57.1143 11.4259 56.8457 10.7469 56.4471 10.3664Z" fill="#2EA7AF"/>
<path d="M23.9927 22.5861C22.4675 21.8257 21.1322 21.3661 19.3882 21.0013C18.2114 20.7552 17.9893 20.7482 10.4701 20.7212C4.1656 20.6984 2.67062 20.7215 2.27522 20.8474C1.24996 21.1743 0.49269 21.9463 0.180663 22.9826C-0.0646443 23.7976 -0.0580502 53.0099 0.187704 53.8372C0.434241 54.6676 1.01661 55.3628 1.77902 55.7372L2.42352 56.0536L9.576 56.0885C14.4791 56.1123 17.1121 56.0823 17.9485 55.9931C24.7779 55.2642 30.5434 50.6815 32.805 44.1843C33.5391 42.0754 33.7164 40.9298 33.7092 38.3413C33.704 36.4164 33.6642 35.8752 33.46 34.9537C32.2343 29.4193 28.8618 25.0137 23.9927 22.5861Z" fill="#E74A00"/>
<path d="M139.634 0.828411C142.404 0.828411 144.385 2.62778 144.385 5.20387C144.385 7.81878 142.404 9.6311 139.634 9.6311H136.1V0.828411H139.634ZM139.634 7.66344C141.071 7.66344 142.171 6.60194 142.171 5.20387C142.171 3.84463 141.071 2.79607 139.634 2.79607H138.288V7.66344H139.634ZM146.51 2.36888C145.824 2.36888 145.28 1.86402 145.28 1.19087C145.28 0.504782 145.824 -7.7949e-05 146.51 -7.7949e-05C147.183 -7.7949e-05 147.74 0.504782 147.74 1.19087C147.74 1.86402 147.183 2.36888 146.51 2.36888ZM145.474 3.35271H147.571V9.6311H145.474V3.35271ZM153.342 3.35271H155.439V9.66994C155.439 11.6376 154.041 12.7768 152.073 12.7768C150.17 12.7768 148.785 11.6894 148.682 10.0583H150.753C150.857 10.6408 151.297 11.0033 152.073 11.0033C152.785 11.0033 153.342 10.5632 153.342 9.70877V8.95796C152.876 9.24275 152.319 9.41104 151.62 9.41104C149.924 9.41104 148.501 8.07769 148.501 6.38187C148.501 4.46599 149.924 3.18443 151.62 3.18443C152.319 3.18443 152.876 3.36566 153.342 3.6634V3.35271ZM152.047 7.74111C152.501 7.74111 152.941 7.59872 153.342 7.14564V5.48866C152.941 5.03558 152.501 4.90613 152.047 4.90613C151.193 4.90613 150.559 5.47571 150.559 6.38187C150.559 7.06797 151.193 7.74111 152.047 7.74111ZM157.705 2.36888C157.019 2.36888 156.475 1.86402 156.475 1.19087C156.475 0.504782 157.019 -7.7949e-05 157.705 -7.7949e-05C158.378 -7.7949e-05 158.935 0.504782 158.935 1.19087C158.935 1.86402 158.378 2.36888 157.705 2.36888ZM156.669 3.35271H158.766V9.6311H156.669V3.35271ZM164.783 7.61166L165.016 9.48871C164.369 9.76055 163.696 9.79939 163.333 9.79939C161.624 9.79939 160.589 8.68611 160.589 6.9903V5.15209H159.359V3.35271H160.589V1.21676H162.686V3.35271H164.822V5.15209H162.686V6.92557C162.686 7.57283 163.061 7.87056 163.67 7.87056C164.071 7.87056 164.408 7.75406 164.783 7.61166ZM170.014 3.35271H172.112V9.6311H170.014V9.29453C169.548 9.60521 168.992 9.79939 168.293 9.79939C166.597 9.79939 165.173 8.34953 165.173 6.48544C165.173 4.60839 166.597 3.18443 168.293 3.18443C168.992 3.18443 169.548 3.36566 170.014 3.67634V3.35271ZM168.72 8.01296C169.173 8.01296 169.613 7.89646 170.014 7.45632V5.51455C169.613 5.07442 169.173 4.95791 168.72 4.95791C167.866 4.95791 167.231 5.61811 167.231 6.48544C167.231 7.35276 167.866 8.01296 168.72 8.01296ZM173.147 0.440056H175.257V9.6311H173.147V0.440056ZM145.602 12.8284V21.6311H143.414V17.2168L141.459 20.233V20.246H140.243V20.233L138.275 17.1909L138.288 21.6311H136.1V12.8284H137.731L140.851 17.5275L143.971 12.8284H145.602ZM151.253 15.3527H153.35V21.6311H151.253V21.2945C150.787 21.6052 150.23 21.7994 149.531 21.7994C147.835 21.7994 146.411 20.3495 146.411 18.4854C146.411 16.6084 147.835 15.1844 149.531 15.1844C150.23 15.1844 150.787 15.3657 151.253 15.6763V15.3527ZM149.958 20.013C150.411 20.013 150.851 19.8965 151.253 19.4563V17.5146C150.851 17.0744 150.411 16.9579 149.958 16.9579C149.104 16.9579 148.469 17.6181 148.469 18.4854C148.469 19.3528 149.104 20.013 149.958 20.013ZM158.854 12.4401H160.951V21.6311H158.854V21.3204C158.388 21.6182 157.831 21.7994 157.132 21.7994C155.436 21.7994 154.012 20.3754 154.012 18.4984C154.012 16.6343 155.436 15.2103 157.132 15.2103C157.831 15.2103 158.388 15.3915 158.854 15.7022V12.4401ZM157.559 20.0389C158.012 20.0389 158.452 19.9223 158.854 19.4822V17.5404C158.452 17.1003 158.012 16.9838 157.559 16.9838C156.705 16.9838 156.071 17.644 156.071 18.4984C156.071 19.3786 156.705 20.0389 157.559 20.0389ZM164.927 15.1844C167.14 15.1844 168.474 16.7637 168.163 18.9903H163.619C163.762 19.6376 164.189 20.1424 165.043 20.1424C165.509 20.1424 165.781 20.0389 165.975 19.8058H168.098C167.723 21.0356 166.558 21.7994 165.082 21.7994C163.024 21.7994 161.651 20.4013 161.651 18.4854C161.651 16.5825 162.985 15.1844 164.927 15.1844ZM164.978 16.7378C164.24 16.7378 163.813 17.1521 163.645 17.7864H166.26C166.143 17.0615 165.69 16.7378 164.978 16.7378ZM142.715 34.6311L142.12 33.1165H138.391L137.809 34.6311H135.479L139.22 25.8284H141.317L145.045 34.6311H142.715ZM139.103 31.2913H141.408L140.255 28.3268L139.103 31.2913ZM148.198 33.0259C148.833 33.0259 149.325 32.6246 149.428 32.055H151.409C151.253 33.6732 149.92 34.7994 148.185 34.7994C146.218 34.7994 144.755 33.4013 144.755 31.4854C144.755 29.5825 146.218 28.1844 148.185 28.1844C149.92 28.1844 151.253 29.3107 151.409 30.9288H149.428C149.325 30.3592 148.833 29.9579 148.198 29.9579C147.292 29.9579 146.762 30.6311 146.762 31.4854C146.762 32.3398 147.292 33.0259 148.198 33.0259ZM155.319 33.0259C155.954 33.0259 156.445 32.6246 156.549 32.055H158.53C158.374 33.6732 157.041 34.7994 155.306 34.7994C153.339 34.7994 151.876 33.4013 151.876 31.4854C151.876 29.5825 153.339 28.1844 155.306 28.1844C157.041 28.1844 158.374 29.3107 158.53 30.9288H156.549C156.445 30.3592 155.954 29.9579 155.319 29.9579C154.413 29.9579 153.882 30.6311 153.882 31.4854C153.882 32.3398 154.413 33.0259 155.319 33.0259ZM162.272 28.1844C164.485 28.1844 165.819 29.7637 165.508 31.9903H160.964C161.107 32.6376 161.534 33.1424 162.388 33.1424C162.854 33.1424 163.126 33.0389 163.32 32.8058H165.443C165.068 34.0356 163.903 34.7994 162.427 34.7994C160.369 34.7994 158.997 33.4013 158.997 31.4854C158.997 29.5825 160.33 28.1844 162.272 28.1844ZM162.324 29.7378C161.586 29.7378 161.159 30.1521 160.99 30.7864H163.605C163.489 30.0615 163.036 29.7378 162.324 29.7378ZM167.713 32.4822C167.803 33.0259 168.295 33.2589 168.956 33.2589C169.512 33.2589 169.862 33.1036 169.862 32.8317C169.862 32.6117 169.616 32.4563 169.201 32.3916L167.933 32.1715C166.858 31.9903 166.095 31.3819 166.095 30.2815C166.095 28.9611 167.221 28.1844 168.891 28.1844C170.38 28.1844 171.726 28.6893 171.816 30.3463H169.965C169.926 29.8802 169.473 29.6731 168.891 29.6731C168.347 29.6731 168.101 29.8673 168.101 30.1003C168.101 30.3204 168.256 30.5146 168.761 30.6052L169.926 30.7993C171.091 31.0194 171.881 31.589 171.881 32.7023C171.881 34.1521 170.587 34.7994 168.943 34.7994C167.324 34.7994 165.991 34.1392 165.849 32.4693L167.713 32.4822ZM174.075 32.4822C174.166 33.0259 174.658 33.2589 175.318 33.2589C175.875 33.2589 176.224 33.1036 176.224 32.8317C176.224 32.6117 175.978 32.4563 175.564 32.3916L174.295 32.1715C173.221 31.9903 172.457 31.3819 172.457 30.2815C172.457 28.9611 173.583 28.1844 175.253 28.1844C176.742 28.1844 178.088 28.6893 178.179 30.3463H176.328C176.289 29.8802 175.836 29.6731 175.253 29.6731C174.709 29.6731 174.463 29.8673 174.463 30.1003C174.463 30.3204 174.619 30.5146 175.124 30.6052L176.289 30.7993C177.454 31.0194 178.243 31.589 178.243 32.7023C178.243 34.1521 176.949 34.7994 175.305 34.7994C173.687 34.7994 172.353 34.1392 172.211 32.4693L174.075 32.4822ZM180.23 27.3689C179.544 27.3689 179.001 26.864 179.001 26.1909C179.001 25.5048 179.544 24.9999 180.23 24.9999C180.903 24.9999 181.46 25.5048 181.46 26.1909C181.46 26.864 180.903 27.3689 180.23 27.3689ZM179.195 28.3527H181.292V34.6311H179.195V28.3527ZM186.325 28.2103C188.02 28.2103 189.444 29.6343 189.444 31.4984C189.444 33.3754 188.02 34.7994 186.325 34.7994C185.639 34.7994 185.082 34.6182 184.616 34.3204V34.6311H182.506V25.4401H184.616V28.6893C185.082 28.3915 185.639 28.2103 186.325 28.2103ZM185.91 33.0389C186.765 33.0389 187.386 32.3786 187.386 31.4984C187.386 30.644 186.765 29.9838 185.91 29.9838C185.457 29.9838 185.004 30.1003 184.616 30.5275V32.4952C185.004 32.9223 185.457 33.0389 185.91 33.0389ZM190.158 25.4401H192.268V34.6311H190.158V25.4401ZM196.249 28.1844C198.462 28.1844 199.796 29.7637 199.485 31.9903H194.941C195.084 32.6376 195.511 33.1424 196.365 33.1424C196.831 33.1424 197.103 33.0389 197.297 32.8058H199.42C199.045 34.0356 197.88 34.7994 196.404 34.7994C194.346 34.7994 192.974 33.4013 192.974 31.4854C192.974 29.5825 194.307 28.1844 196.249 28.1844ZM196.301 29.7378C195.563 29.7378 195.135 30.1521 194.967 30.7864H197.582C197.466 30.0615 197.013 29.7378 196.301 29.7378Z" fill="#E74A00"/>
</svg>
