<svg width="40" height="40" viewBox="0 0 40 40" fill="none" xmlns="http://www.w3.org/2000/svg">
<path d="M20 40C31.0457 40 40 31.0457 40 20C40 8.9543 31.0457 0 20 0C8.9543 0 0 8.9543 0 20C0 31.0457 8.9543 40 20 40Z" fill="white"/>
<path d="M15.0938 17.1418H11.676V27.969H15.0938V17.1418Z" fill="#2EA7AF"/>
<path d="M24.4303 17.0376C22.4721 17.0376 21.2458 18.0985 21.0183 18.8412V17.142H17.1801C17.2285 18.0443 17.1801 27.9692 17.1801 27.9692H21.0183V22.1105C21.0183 21.7847 21.0032 21.4594 21.1027 21.2256C21.3667 20.5749 21.9334 19.8989 22.9525 19.8989C24.2849 19.8989 24.8907 20.9003 24.8907 22.3665V27.9692H28.7667V21.9487C28.7672 18.5954 26.8587 17.0376 24.4303 17.0376Z" fill="#2EA7AF"/>
<path d="M13.3214 12.031C12.0596 12.031 11.2343 12.8412 11.2343 13.9106C11.2343 14.9599 12.036 15.7879 13.2738 15.7879H13.2978C14.5827 15.7879 15.3823 14.9572 15.3823 13.9083C15.3578 12.8394 14.5823 12.031 13.3214 12.031Z" fill="#2EA7AF"/>
</svg>
