<svg width="209" height="74" viewBox="0 0 209 74" fill="none" xmlns="http://www.w3.org/2000/svg">
<g clip-path="url(#clip0_983_1608)">
<path d="M199.837 0H42.1547C41.2493 0 40.9993 1.23308 41.8364 1.58271C55.7693 7.39474 65.5541 21.0639 65.5541 37.0038C65.5541 52.9436 55.7806 66.5977 41.8592 72.4173C41.022 72.7669 41.272 73.9962 42.1774 73.9962H199.837C204.898 73.9962 209 69.9248 209 64.9023V9.09399C209 4.07143 204.898 0 199.837 0Z" fill="#2EA7AF"/>
<path fill-rule="evenodd" clip-rule="evenodd" d="M21.225 13.8834L4.15182 13.8796C1.8562 13.8796 -0.00378418 15.7255 -0.00378418 18.0037V56.0037C-0.00378418 58.2819 1.8562 60.1278 4.15182 60.1278H21.225C34.0404 60.0676 44.4123 49.7405 44.4123 37.0075C44.4123 24.2744 34.0404 13.9473 21.225 13.8872V13.8834Z" fill="#E74A00"/>
<path d="M96.848 26.3721C96.848 31.4473 93.8099 34.2218 89.0557 34.2218C84.9039 34.2218 81.8658 31.7744 81.5363 27.5639H84.813C85.0554 29.9812 86.8586 31.2368 89.2641 31.2368C91.6696 31.2368 93.5636 29.4774 93.5636 26.2819V13.5676H96.8442V26.3721H96.848Z" fill="white"/>
<path d="M113.63 19.8346V33.8647H110.531V32.4925C109.296 33.5978 107.762 34.2218 105.928 34.2218C102.257 34.2218 99.7914 31.6241 99.7914 27.594V19.8346H102.89V27.4173C102.89 29.985 104.303 31.4173 106.561 31.4173C107.943 31.4173 109.387 30.6429 110.531 29.2068V19.8346H113.63Z" fill="white"/>
<path d="M122.891 31.6842C124.725 31.6842 125.99 31.0865 125.99 29.9812C125.99 29.1466 125.297 28.5489 124.096 28.3383L120.967 27.8007C118.8 27.4436 116.785 26.3684 116.785 23.8308C116.785 21.1128 119.16 19.4436 122.679 19.4436C125.418 19.4436 128.574 20.3684 128.877 24.0413H125.99C125.839 22.5188 124.486 21.921 122.683 21.921C120.88 21.921 119.887 22.5789 119.887 23.5639C119.887 24.3083 120.429 25.0263 122.085 25.297L124.733 25.7143C126.869 26.1015 128.975 27.0263 128.975 29.7444C128.975 32.6992 126.358 34.2218 122.808 34.2218C119.471 34.2218 116.611 32.9098 116.251 29.2068L119.137 29.2368C119.467 30.9699 120.763 31.6842 122.899 31.6842H122.891Z" fill="white"/>
<path d="M141.9 33.6542C140.666 34.1015 139.647 34.2218 138.681 34.2218C135.07 34.2218 133.146 32.0714 133.146 28.4624V22.4323H129.809V19.8346H133.146V14.6692H136.275V19.8346H141.51V22.4323H136.275V28.4624C136.275 30.4925 137.298 31.3572 139.04 31.3572C139.881 31.3572 140.726 31.1166 141.446 30.8196L141.897 33.6542H141.9Z" fill="white"/>
<path d="M99.6436 43.0901H92.3931V60.4322H89.1731V43.0901H81.9226V40.1353H99.6398V43.0901H99.6436Z" fill="white"/>
<path d="M112.156 46.0451V60.0752H109.057V58.9699C107.853 59.8948 106.318 60.4324 104.515 60.4324C100.545 60.4324 97.3556 57.1504 97.3556 53.0602C97.3556 48.9699 100.545 45.688 104.515 45.688C106.318 45.688 107.853 46.2256 109.057 47.1504V46.0451H112.156ZM109.057 55.5978V50.5226C108.004 49.0301 106.53 48.4925 104.966 48.4925C102.379 48.4925 100.485 50.5527 100.485 53.0602C100.485 55.5677 102.379 57.6278 104.966 57.6278C106.53 57.6278 108.004 57.0902 109.057 55.5978Z" fill="white"/>
<path d="M118.865 39.2406V60.4323H115.736V39.2406H118.865Z" fill="white"/>
<path d="M128.248 54.4323L125.57 57.1203V60.4323H122.441V39.2406H125.57V53.0301L132.218 46.4023H136.188L130.385 52.2519L137.093 60.4323H133.032L128.252 54.4323H128.248Z" fill="white"/>
</g>
<defs>
<clipPath id="clip0_983_1608">
<rect width="209" height="74" fill="white"/>
</clipPath>
</defs>
</svg>
