<svg width="80" height="80" viewBox="0 0 80 80" fill="none" xmlns="http://www.w3.org/2000/svg">
<rect width="80" height="80" rx="40" fill="#2EA7AF"/>
<path d="M50.573 20.6236L51.7483 24.1364L48.0788 27.7924C47.427 28.4418 47.9809 29.5534 48.8971 29.4225L58.4427 28.0638C59.038 27.9787 59.4113 27.3777 59.2211 26.8093L58.0458 23.2965L61.7153 19.6405C62.3678 18.9905 61.8141 17.8804 60.897 18.0105L51.3515 19.3691C50.7561 19.4543 50.3829 20.0552 50.573 20.6236Z" fill="white"/>
<path d="M58.4489 43.4272L52.9799 37.9581C52.476 37.4542 51.6607 37.4542 51.1569 37.9581L46.5994 42.5156L53.8914 49.8077L58.4489 45.2501C58.9528 44.7464 58.9528 43.931 58.4489 43.4272Z" fill="white"/>
<path d="M39.3074 49.8077C36.7945 52.3206 32.7052 52.3206 30.1923 49.8077C27.6794 47.2948 27.6794 43.2055 30.1923 40.6926L35.6614 35.2236L28.3693 27.9315L22.9002 33.4006C16.3666 39.9342 16.3666 50.5661 22.9002 57.0997C29.4339 63.6334 40.0658 63.6334 46.5994 57.0997L52.0685 51.6307L44.7764 44.3386L39.3074 49.8077Z" fill="white"/>
<path d="M42.0418 28.8432C42.5457 28.3393 42.5457 27.5239 42.0418 27.0202L36.5728 21.5511C36.0689 21.0473 35.2536 21.0473 34.7498 21.5511L30.1923 26.1086L37.4843 33.4007L42.0418 28.8432Z" fill="white"/>
</svg>
