<svg width="80" height="80" viewBox="0 0 80 80" fill="none" xmlns="http://www.w3.org/2000/svg">
<rect width="80" height="80" rx="40" fill="#2EA7AF"/>
<path d="M28.2472 56.3203C27.1157 56.3203 26.1983 55.2403 26.1983 53.908V41.0934L38.5162 45.5226C39.003 45.697 39.5047 45.7848 40.0101 45.7848C40.5172 45.7848 41.02 45.6964 41.5045 45.5218L53.8203 41.0891V53.908C53.8203 55.2403 52.903 56.3203 51.7714 56.3203H28.2472Z" fill="white"/>
<path d="M19.4504 30.2823L39.4113 23.1049C39.8015 22.965 40.2186 22.965 40.6088 23.105L60.5501 30.2824C61.4116 30.5926 62 31.5287 62 32.5893C62 33.6499 61.4116 34.5862 60.5501 34.8962L59.7114 35.198V44.5651C59.7114 45.5609 59.0258 46.3682 58.18 46.3682C57.3342 46.3682 56.6485 45.5609 56.6485 44.5651V36.3004L40.6088 42.0734C40.2186 42.2141 39.8016 42.2134 39.4113 42.0736L19.4504 34.8962C18.5886 34.5863 18 33.65 18 32.5892C18 31.5285 18.5887 30.5922 19.4504 30.2823Z" fill="white"/>
</svg>
