<svg width="80" height="80" viewBox="0 0 80 80" fill="none" xmlns="http://www.w3.org/2000/svg">
<rect width="80" height="80" rx="40" fill="#2EA7AF"/>
<g clip-path="url(#clip0_983_1493)">
<path d="M44.0173 26.6086H41.4346V52.0288C46.7244 48.792 50.0433 42.9914 50.0433 36.6769V30.9854C47.581 29.9845 45.5231 28.4899 44.0173 26.6086Z" fill="#2EA7AF"/>
<path d="M35.9829 26.6086C34.4771 28.4904 32.4183 29.9845 29.9561 30.9854V36.6769C29.9561 42.9915 33.2749 48.792 38.5648 52.0288V26.6086H35.9829Z" fill="#2EA7AF"/>
<path d="M57.2174 23.7392C53.3287 23.7392 50.0435 21.7683 50.0435 19.4348C50.0435 18.6422 49.4008 18 48.6087 18H31.3913C30.5992 18 29.9565 18.6422 29.9565 19.4348C29.9565 21.7683 26.6712 23.7392 22.7826 23.7392C21.9905 23.7392 21.3478 24.3814 21.3478 25.174V36.6775C21.3478 48.1515 28.6609 58.2982 39.546 61.9264C39.8313 62.0211 40.1473 62.0282 40.4539 61.9264C51.339 58.2982 58.6521 48.1516 58.6521 36.6775V25.1739C58.6522 24.3814 58.0095 23.7392 57.2174 23.7392ZM52.9131 36.677C52.9131 44.8933 48.0744 52.3699 40.5866 55.7238C40.2236 55.8864 39.7923 55.8935 39.4133 55.7238C31.9256 52.3698 27.0869 44.8933 27.0869 36.677V29.9897C27.0869 29.3751 27.4783 28.8291 28.0602 28.6311C30.6112 27.7638 32.756 26.2417 34.0973 24.3454C34.3664 23.9652 34.8035 23.7391 35.2686 23.7391H44.7321C45.1972 23.7391 45.6344 23.9651 45.9034 24.3454C47.2447 26.2416 49.3894 27.7637 51.9405 28.6315C52.5215 28.829 52.9129 29.3755 52.9129 29.9897V36.677H52.9131Z" fill="white"/>
</g>
<defs>
<clipPath id="clip0_983_1493">
<rect width="44" height="44" fill="white" transform="translate(18 18)"/>
</clipPath>
</defs>
</svg>
