<svg width="80" height="80" viewBox="0 0 80 80" fill="none" xmlns="http://www.w3.org/2000/svg">
<rect width="80" height="80" rx="40" fill="#2EA7AF"/>
<g clip-path="url(#clip0_983_1506)">
<path d="M58.207 49.9346C57.9974 49.7777 57.7808 49.6154 57.5779 49.4552C56.5017 48.6065 55.3568 47.8242 54.2496 47.0676C54.0198 46.9107 53.79 46.7537 53.5611 46.5963C52.1427 45.62 50.8676 45.1456 49.6629 45.1456C48.0403 45.1456 46.6256 46.0242 45.4579 47.7567C44.9406 48.5248 44.313 48.8983 43.5396 48.8983C43.0823 48.8983 42.5626 48.7704 41.9952 48.518C37.4172 46.4835 34.1481 43.3641 32.2787 39.2465C31.375 37.2564 31.668 35.9556 33.2584 34.8968C34.1615 34.2961 35.8425 33.1778 35.7235 31.0363C35.5886 28.6044 30.1133 21.2872 27.8064 20.4561C26.8296 20.1041 25.8034 20.1008 24.7506 20.4479C22.0986 21.3216 20.1955 22.856 19.2465 24.8849C18.3294 26.8454 18.3708 29.1473 19.3662 31.5419C22.2439 38.4652 26.2897 44.5014 31.3918 49.4826C36.3858 54.3586 42.5238 58.3528 49.6353 61.3537C50.2762 61.624 50.9486 61.7714 51.4396 61.879C51.6069 61.9158 51.7513 61.9473 51.8566 61.9756C51.9145 61.991 51.9741 61.9993 52.034 61.9999L52.0902 62.0002C52.0902 62.0002 52.0902 62.0002 52.0904 62.0002C55.4352 62.0002 59.4513 59.0049 60.6848 55.5901C61.7654 52.6 59.7924 51.122 58.207 49.9346Z" fill="white"/>
<path d="M62.5 21.234C62.5 21.5483 62.3916 21.8154 62.1748 22.0354L53.7671 30.5673L52.1877 32.17C51.971 32.39 51.7077 32.5 51.3981 32.5C51.0884 32.5 50.8252 32.39 50.6084 32.17L49.029 30.5673L44.8252 26.3013C44.6084 26.0814 44.5 25.8143 44.5 25.5C44.5 25.1857 44.6084 24.9186 44.8252 24.6987L46.4045 23.096C46.6213 22.876 46.8845 22.766 47.1942 22.766C47.5039 22.766 47.7671 22.876 47.9839 23.096L51.3981 26.5724L59.0161 18.83C59.2329 18.61 59.4961 18.5 59.8058 18.5C60.1155 18.5 60.3787 18.61 60.5955 18.83L62.1748 20.4327C62.3916 20.6526 62.5 20.9198 62.5 21.234Z" fill="white"/>
</g>
<defs>
<clipPath id="clip0_983_1506">
<rect width="44.898" height="44" fill="white" transform="translate(18 18)"/>
</clipPath>
</defs>
</svg>
