<svg width="276" height="64" viewBox="0 0 276 64" fill="none" xmlns="http://www.w3.org/2000/svg">
<path fill-rule="evenodd" clip-rule="evenodd" d="M111.847 12.2061C110.956 12.4795 109.554 13.9328 109.34 14.8051C109.263 15.1171 109.233 23.0552 109.272 32.4455L109.344 49.5187L110.225 50.4268C110.728 50.9466 111.543 51.453 112.129 51.6108C112.814 51.7953 115.976 51.8474 121.667 51.7678C130.729 51.6413 131.272 51.5758 134.681 50.1991C140.357 47.9065 144.635 43.0586 146.354 36.9694C147.099 34.3341 147.153 29.6909 146.468 27.1872C144.455 19.8317 139.283 14.6582 131.958 12.6733C130.095 12.1687 129.204 12.1159 121.286 12.0417C116.201 11.9939 112.318 12.0615 111.847 12.2061ZM71.7806 13.246C62.0697 14.4936 55.4048 22.8172 55.9371 33.0311C56.1109 36.3614 56.5652 38.109 58.0382 41.1115C60.0675 45.248 63.8902 48.5082 68.3812 49.9326C77.33 52.771 86.9621 49.4966 90.5623 42.3921C91.6091 40.3264 91.743 40.3996 86.9136 40.3996H82.6501L81.7722 41.3303C81.2894 41.842 80.264 42.5568 79.4931 42.9183C78.2173 43.5167 77.8075 43.5751 74.9157 43.5706C71.1225 43.5645 69.598 43.0845 67.5635 41.2553C66.1991 40.0286 64.6568 37.2685 64.3524 35.5084L64.1875 34.5556H78.1858H92.1838L92.35 33.8937C92.613 32.8451 92.2735 27.719 91.8299 26.0438C91.6078 25.2053 90.9526 23.5474 90.3735 22.3596C89.5383 20.646 88.896 19.7781 87.2635 18.1578C84.265 15.1819 81.2513 13.773 76.7009 13.2201C74.3118 12.9297 74.2389 12.9302 71.7806 13.246ZM0.00442352 14.3178C0.0501588 14.5132 2.94622 22.6324 6.43988 32.3606L12.792 50.0479L16.3492 50.049L19.9064 50.0497L24.0909 37.7327L28.2754 25.4157L32.447 37.7419L36.6186 50.0683L40.1668 49.9981L43.7151 49.9278L50.1615 32.0148C53.7068 22.1626 56.6107 14.0731 56.6148 14.0383C56.6186 14.0035 54.6819 13.9748 52.3111 13.9748C48.4581 13.9748 47.9774 14.022 47.7828 14.4194C47.6631 14.6641 45.9211 19.9237 43.9121 26.1076C41.9028 32.2915 40.1801 37.2652 40.0835 37.1603C39.9867 37.0553 38.1316 31.9957 35.9607 25.9167C33.7901 19.8378 31.9345 14.6608 31.8377 14.4126C31.6789 14.0053 31.3199 13.9676 28.1977 14.0314L24.734 14.1018L20.5545 25.8448C18.2558 32.3037 16.3413 37.5543 16.3001 37.5134C16.2592 37.4723 14.5198 32.1878 12.4353 25.7701L8.64483 14.1018L4.28296 14.0322C0.651578 13.9743 -0.0649416 14.022 0.00442352 14.3178ZM79.0004 20.88C79.771 21.2329 80.823 21.8915 81.3377 22.3436C82.4654 23.3335 83.7472 25.8471 83.9698 27.5048L84.1319 28.7117H74.2086H64.2851L64.5453 27.7589C65.3383 24.8554 67.3722 22.2173 69.6773 21.1029C71.5161 20.2138 72.2458 20.0865 75.0504 20.166C77.1357 20.2253 77.8537 20.3551 79.0004 20.88Z" fill="#E74A00"/>
<path fill-rule="evenodd" clip-rule="evenodd" d="M143.18 0.169475C142.702 0.6469 143.213 1.11391 145.231 2.04665C157.303 7.62356 164.608 18.8739 164.608 31.8876C164.608 36.5984 163.862 40.3799 162.129 44.4649C158.866 52.1519 153.293 57.9202 145.64 61.5302C143.626 62.48 143.005 62.8855 143.116 63.1764C143.198 63.3891 143.265 63.6107 143.265 63.6691C143.265 63.9216 200.091 63.7616 201.01 63.5065C201.537 63.3604 202.337 62.8642 202.789 62.404C203.24 61.9436 206.239 56.9765 209.454 51.3653C214.842 41.9578 215.347 41.1686 215.933 41.2263L216.568 41.2888L216.695 51.8912L216.822 62.4937L217.527 63.198L218.231 63.9023L244.32 63.9694C273.395 64.0441 271.921 64.1275 273.662 62.3095C275.427 60.4671 275.921 58.592 275.182 56.5339C274.78 55.4123 245.102 3.75385 243.831 1.96331C242.505 0.0942648 239.197 -0.318367 237.384 1.15939C236.702 1.71584 234.155 5.91459 227.377 17.6589C220.363 29.812 218.164 33.4305 217.752 33.4924L217.218 33.5725L217.147 18.3744L217.076 3.17606L216.492 2.23595C216.17 1.71914 215.484 1.03311 214.967 0.711438L214.027 0.127042H203.806H193.585L192.981 0.762255C192.583 1.18073 190.824 5.59291 187.83 13.6875C185.329 20.447 183.131 26.0366 182.945 26.109C182.76 26.1812 182.452 26.0816 182.262 25.8879C182.071 25.6941 179.904 20.1045 177.445 13.4665C173.748 3.48528 172.844 1.27652 172.217 0.698733L171.46 0H157.405C149.674 0 143.273 0.0762254 143.18 0.169475Z" fill="#2EA7AF"/>
</svg>
